<svg width="24" height="24" viewBox="0 0 24 24" fill="none" xmlns="http://www.w3.org/2000/svg">
<path fill-rule="evenodd" clip-rule="evenodd" d="M12 0C5.37258 0 0 5.37258 0 12C0 18.6274 5.37258 24 12 24C18.6274 24 24 18.6274 24 12C24 5.37258 18.6274 0 12 0ZM9.36164 5.63867C10.0443 5.6076 10.2624 5.6 12.0006 5.6H11.9986C13.7373 5.6 13.9546 5.6076 14.6373 5.63867C15.3186 5.66987 15.784 5.77774 16.192 5.936C16.6133 6.09934 16.9693 6.31801 17.3253 6.67401C17.6813 7.02975 17.9 7.38682 18.064 7.80776C18.2213 8.21469 18.3293 8.67976 18.3613 9.3611C18.392 10.0438 18.4 10.2619 18.4 12.0001C18.4 13.7382 18.392 13.9558 18.3613 14.6385C18.3293 15.3196 18.2213 15.7848 18.064 16.1918C17.9 16.6126 17.6813 16.9697 17.3253 17.3255C16.9697 17.6815 16.6132 17.9007 16.1924 18.0641C15.7852 18.2224 15.3196 18.3303 14.6382 18.3615C13.9556 18.3925 13.7381 18.4001 11.9998 18.4001C10.2618 18.4001 10.0438 18.3925 9.36111 18.3615C8.6799 18.3303 8.21469 18.2224 7.80749 18.0641C7.38682 17.9007 7.02975 17.6815 6.67414 17.3255C6.31827 16.9697 6.09961 16.6126 5.936 16.1917C5.77787 15.7848 5.67 15.3197 5.63867 14.6384C5.60773 13.9557 5.6 13.7382 5.6 12.0001C5.6 10.2619 5.608 10.0436 5.63853 9.36097C5.6692 8.6799 5.7772 8.21469 5.93587 7.80762C6.09987 7.38682 6.31854 7.02975 6.67454 6.67401C7.03028 6.31814 7.38735 6.09947 7.80829 5.936C8.21523 5.77774 8.6803 5.66987 9.36164 5.63867Z" fill="#194275"/>
<path fill-rule="evenodd" clip-rule="evenodd" d="M11.4265 6.7516C11.538 6.75143 11.6579 6.75148 11.7873 6.75154L12.0006 6.7516C13.7094 6.7516 13.912 6.75773 14.5868 6.7884C15.2108 6.81693 15.5495 6.9212 15.7751 7.0088C16.0737 7.1248 16.2867 7.26347 16.5105 7.48747C16.7345 7.71148 16.8732 7.92481 16.9895 8.22348C17.0771 8.44882 17.1815 8.78749 17.2099 9.41149C17.2405 10.0862 17.2472 10.2888 17.2472 11.9969C17.2472 13.7049 17.2405 13.9075 17.2099 14.5822C17.1813 15.2062 17.0771 15.5449 16.9895 15.7702C16.8735 16.0689 16.7345 16.2816 16.5105 16.5054C16.2865 16.7294 16.0739 16.8681 15.7751 16.9841C15.5497 17.0721 15.2108 17.1761 14.5868 17.2046C13.9121 17.2353 13.7094 17.242 12.0006 17.242C10.2917 17.242 10.0891 17.2353 9.41447 17.2046C8.79046 17.1758 8.45179 17.0716 8.22605 16.984C7.92738 16.868 7.71405 16.7293 7.49005 16.5053C7.26604 16.2813 7.12738 16.0685 7.01111 15.7697C6.92351 15.5444 6.81911 15.2057 6.79071 14.5817C6.76004 13.907 6.75391 13.7043 6.75391 11.9953C6.75391 10.2862 6.76004 10.0846 6.79071 9.40989C6.81924 8.78589 6.92351 8.44722 7.01111 8.22162C7.12711 7.92295 7.26604 7.70961 7.49005 7.48561C7.71405 7.26161 7.92738 7.12294 8.22605 7.00667C8.45166 6.91867 8.79046 6.81467 9.41447 6.786C10.0049 6.75933 10.2337 6.75133 11.4265 6.75V6.7516ZM15.4169 7.81428C14.9929 7.81428 14.6489 8.15788 14.6489 8.58202C14.6489 9.00602 14.9929 9.35003 15.4169 9.35003C15.8409 9.35003 16.1849 9.00602 16.1849 8.58202C16.1849 8.15802 15.8409 7.81401 15.4169 7.81401V7.81428ZM8.71393 11.9983C8.71393 10.1833 10.1855 8.71169 12.0005 8.71162C13.8156 8.71162 15.2868 10.1832 15.2868 11.9983C15.2868 13.8134 13.8157 15.2844 12.0006 15.2844C10.1855 15.2844 8.71393 13.8134 8.71393 11.9983Z" fill="#194275"/>
<path d="M12.0005 9.86719C13.1787 9.86719 14.1339 10.8223 14.1339 12.0005C14.1339 13.1787 13.1787 14.1339 12.0005 14.1339C10.8223 14.1339 9.86719 13.1787 9.86719 12.0005C9.86719 10.8223 10.8223 9.86719 12.0005 9.86719Z" fill="#194275"/>
</svg>
